<svg id="_x33_0" enable-background="new 0 0 64 64" height="512" viewBox="0 0 64 64" width="512" xmlns="http://www.w3.org/2000/svg"><g><path d="m21 31h-2v2h-2v2h2v2h2v-2h2v-2h-2z"/><path d="m20 27c-3.86 0-7 3.14-7 7s3.14 7 7 7 7-3.14 7-7-3.14-7-7-7zm0 12c-2.757 0-5-2.243-5-5s2.243-5 5-5 5 2.243 5 5-2.243 5-5 5z"/><path d="m13 43h6v2h-6z"/><path d="m21 43h6v2h-6z"/><path d="m13 47h14v2h-14z"/><path d="m13 51h14v2h-14z"/><path d="m30.366 27.485c-.265-2.557-2.403-4.485-4.973-4.485h-10.786c-2.571 0-4.708 1.928-4.973 4.485l-2.613 25.264c-.014.132-.021.266-.021.398 0 2.124 1.729 3.853 3.853 3.853h18.294c2.124 0 3.853-1.729 3.853-3.853 0-.132-.007-.266-.021-.396zm-1.219 27.515h-18.294c-1.022 0-1.853-.831-1.853-1.853 0-.063.003-.126.01-.19l2.614-25.265c.158-1.535 1.441-2.692 2.983-2.692h10.785c1.542 0 2.825 1.157 2.984 2.691l2.614 25.267c.007.063.01.126.01.189 0 1.022-.831 1.853-1.853 1.853z"/><path d="m49.733 25.319-.733-.789-.733.789c-.381.411-6.804 7.386-10.571 14.718l-1.363-13.169c-.526-5.082-4.419-9.023-9.334-9.74v-4.128c0-1.103-.897-2-2-2h-2v-4h6c.939 0 1.837.449 2.4 1.2l1.399 1.866c.44.585 1.138.934 1.869.934 1.286 0 2.333-1.047 2.333-2.333v-.667c0-3.86-3.14-7-7-7h-17c-1.103 0-2 .897-2 2v2c0 1.103.897 2 2 2h4v4h-2c-1.103 0-2 .897-2 2v4.128c-4.915.717-8.808 4.658-9.334 9.74l-2.613 25.254c-.035.341-.053.684-.053 1.025 0 5.433 4.42 9.853 9.853 9.853h18.294c3.774 0 7.154-2.162 8.8-5.439 2.563 3.302 6.559 5.439 11.053 5.439 7.72 0 14-6.28 14-14 0-9.286-12.726-23.097-13.267-23.681zm-24.733-12.319v4h-2v-4zm-6 4v-4h2v4zm-6-14h17c2.757 0 5 2.243 5 5v.667c0 .289-.425.432-.6.2l-1.4-1.867c-.939-1.252-2.435-2-4-2h-16zm6 4h2v4h-2zm-2 6v4h-2v-4zm12.147 48h-18.294c-4.33 0-7.853-3.523-7.853-7.853 0-.271.014-.544.042-.817l2.613-25.255c.477-4.604 4.325-8.075 8.952-8.075h10.785c4.627 0 8.476 3.471 8.952 8.074l1.723 16.655c-.661 1.833-1.067 3.624-1.067 5.271 0 2.349.588 4.562 1.615 6.508-1.028 3.245-4.037 5.492-7.468 5.492zm19.853 0c-6.617 0-12-5.383-12-12 0-7.299 9.29-18.414 12-21.5 2.71 3.087 12 14.201 12 21.5 0 6.617-5.383 12-12 12z"/><path d="m58.703 46.763c-.16-.657-.39-1.372-.681-2.125l-1.865.723c.261.672.463 1.303.603 1.875z"/><path d="m57 49c0 4.411-3.589 8-8 8v2c5.514 0 10-4.486 10-10z"/></g></svg>