<svg id="_x33_0" enable-background="new 0 0 64 64" height="512" viewBox="0 0 64 64" width="512" xmlns="http://www.w3.org/2000/svg"><path d="m51 9c1.103 0 2-.897 2-2v-1c0-2.757-2.243-5-5-5h-29c-4.411 0-8 3.589-8 8 0 1.103.897 2 2 2h14v2h-14c-1.103 0-2 .897-2 2v2c0 1.103.897 2 2 2h14v2h-14c-1.103 0-2 .897-2 2v2c0 1.103.897 2 2 2h14v2h-14c-1.103 0-2 .897-2 2v2c0 1.103.897 2 2 2h14v2h-14c-1.103 0-2 .897-2 2v2c0 1.103.897 2 2 2h14v2h-14c-1.103 0-2 .897-2 2v2c0 1.103.897 2 2 2h14v2h-14c-1.103 0-2 .897-2 2 0 4.411 3.589 8 8 8h29c2.757 0 5-2.243 5-5v-1c0-1.103-.897-2-2-2h-14v-2h16v-2h-16v-2h16v-2h-16v-2h16v-2h-16v-2h16v-2h-16v-2h16v-2h-16v-2h16v-2h-16v-2h16v-2h-16v-2h16v-2h-16v-2h16v-2h-16v-2h16v-2h-16v-2h16v-2h-16v-2zm-38 8v-2h14v2zm0 8v-2h14v2zm0 8v-2h14v2zm0 8v-2h14v2zm0 8v-2h14v2zm38 8v1c0 1.654-1.346 3-3 3h-29c-3.309 0-6-2.691-6-6h16v-46h-16c0-3.309 2.691-6 6-6h29c1.654 0 3 1.346 3 3v1h-16v50z"/></svg>