<svg id="_x33_0" enable-background="new 0 0 64 64" height="512" viewBox="0 0 64 64" width="512" xmlns="http://www.w3.org/2000/svg"><g><path d="m47.179 3.308c-1.282-1.414-3.126-2.308-5.179-2.308-1.902 0-3.627.765-4.889 2h-10.222c-1.262-1.235-2.987-2-4.889-2-2.053 0-3.897.894-5.179 2.308-3.441.97-5.821 4.084-5.821 7.692v4c0 4.411 3.589 8 8 8v2.703c-1.307 1.989-2 4.295-2 6.676 0 3.247 1.265 6.3 3.561 8.597l.439.439v10.585c0 6.065 4.935 11 11 11s11-4.935 11-11v-10.585l.439-.439c2.296-2.297 3.561-5.351 3.561-8.598 0-2.381-.693-4.687-2-6.676v-2.702c4.411 0 8-3.589 8-8v-4c0-3.608-2.38-6.722-5.821-7.692zm3.821 7.692c0 3.309-2.691 6-6 6h-9.78l-.079-.393c-.186-.931-1.011-1.607-1.96-1.607h-.181v-10h2.685c-.434.911-.685 1.925-.685 3 0 3.86 3.141 7 7 7s7-3.14 7-7c0-.561-.074-1.105-.199-1.628 1.353 1.109 2.199 2.776 2.199 4.628zm-24 28h10v6h-10zm10.666-2h-11.332c-3.281-2.294-5.253-5.995-5.321-10h21.974c-.068 4.005-2.039 7.706-5.321 10zm-8.446-12 1.6-8h2.361l1.6 8zm9.964-16c.035.098.072.193.116.285l-1.468 1.468c-.347-.524-.601-1.116-.731-1.753zm2.816-2c.552 0 1 .449 1 1s-.448 1-1 1-1-.449-1-1 .448-1 1-1zm-1.285 3.699c.093.044.188.081.285.116v2.083c-.637-.13-1.228-.384-1.753-.732zm2.285.117c.098-.035.193-.072.285-.116l1.467 1.468c-.524.348-1.116.602-1.753.732v-2.084zm3.167-.063-1.468-1.468c.045-.092.082-.187.117-.285h2.083c-.13.637-.384 1.229-.732 1.753zm.732-3.753h-2.083c-.035-.098-.072-.193-.116-.285l1.467-1.468c.348.524.602 1.116.732 1.753zm-3.614-1.699c-.092-.045-.187-.082-.285-.117v-2.083c.637.13 1.228.384 1.753.732zm-2.285-.117c-.098.035-.193.072-.285.116l-1.467-1.468c.524-.347 1.115-.601 1.752-.731zm-1.699 1.531c-.045.092-.082.187-.117.285h-2.083c.13-.637.384-1.229.732-1.753zm-14.485.285c-.035-.098-.072-.193-.116-.285l1.467-1.468c.348.524.602 1.116.732 1.753zm-2.816 2c-.552 0-1-.449-1-1s.448-1 1-1 1 .449 1 1-.448 1-1 1zm1.285-3.699c-.092-.045-.187-.082-.285-.117v-2.083c.637.13 1.228.384 1.753.732zm-2.285-.117c-.098.035-.193.072-.285.116l-1.467-1.468c.524-.347 1.115-.601 1.752-.731zm-1.699 1.531c-.045.092-.082.187-.117.285h-2.083c.13-.637.384-1.229.732-1.753zm-.117 2.285c.035.098.072.193.116.285l-1.468 1.468c-.347-.524-.601-1.116-.731-1.753zm1.531 1.699c.093.044.188.081.285.116v2.083c-.637-.13-1.228-.384-1.753-.732zm2.285.117c.098-.035.193-.072.285-.116l1.467 1.468c-.524.348-1.116.602-1.753.732v-2.084zm3.167-.063-1.468-1.468c.045-.092.082-.187.117-.285h2.083c-.13.637-.384 1.229-.732 1.753zm-10.968-4.381c-.125.523-.199 1.067-.199 1.628 0 3.86 3.141 7 7 7s7-3.14 7-7c0-1.075-.251-2.089-.685-3h2.685v10h-.181c-.949 0-1.774.676-1.961 1.607l-.078.393h-9.78c-3.309 0-6-2.691-6-6 0-1.852.846-3.519 2.199-4.628zm-2.005 10.115c1.46 1.544 3.52 2.513 5.806 2.513h9.38l-.4 2h-8.98c-2.794 0-5.142-1.923-5.806-4.513zm14.386 6.513-.4 2h-6.18v-2zm-4.58 29v-11.415l-1.025-1.024c-1.918-1.919-2.975-4.47-2.975-7.183 0-.868.124-1.721.339-2.549.744 3.472 2.73 6.578 5.661 8.694v19.121c-1.248-1.545-2-3.507-2-5.644zm4 7.478v-12.478h10v12.478c-1.431.96-3.151 1.522-5 1.522s-3.569-.562-5-1.522zm15.025-19.917-1.025 1.024v11.415c0 2.137-.752 4.099-2 5.644v-19.121c2.931-2.116 4.917-5.222 5.661-8.695.215.828.339 1.682.339 2.55 0 2.713-1.057 5.264-2.975 7.183zm.975-14.561h-6.18l-.4-2h6.58zm2-4h-8.98l-.4-2h9.38c2.286 0 4.346-.969 5.806-2.513-.664 2.59-3.012 4.513-5.806 4.513z"/><path d="m32 51c-1.654 0-3 1.346-3 3s1.346 3 3 3 3-1.346 3-3-1.346-3-3-3zm0 4c-.552 0-1-.449-1-1s.448-1 1-1 1 .449 1 1-.448 1-1 1z"/><path d="m31 41h2v2h-2z"/><path d="m35 29h-6c-1.103 0-2 .897-2 2v2c0 1.103.897 2 2 2h6c1.103 0 2-.897 2-2v-2c0-1.103-.897-2-2-2zm-6 2h2v2h-2zm4 2v-2h2l.001 2z"/></g></svg>