<svg id="_x33_0" enable-background="new 0 0 64 64" height="512" viewBox="0 0 64 64" width="512" xmlns="http://www.w3.org/2000/svg"><g><path d="m54 51h-12c-1.654 0-3 1.346-3 3s1.346 3 3 3h12c1.654 0 3-1.346 3-3s-1.346-3-3-3zm0 4h-12c-.551 0-1-.448-1-1s.449-1 1-1h12c.551 0 1 .448 1 1s-.449 1-1 1z"/><path d="m20 22c.551 0 1 .449 1 1h2c0-1.654-1.346-3-3-3s-3 1.346-3 3h2c0-.551.449-1 1-1z"/><path d="m28 22c.551 0 1 .449 1 1h2c0-1.654-1.346-3-3-3s-3 1.346-3 3h2c0-.551.449-1 1-1z"/><path d="m28.897 27.47.051-.154-1.897-.633-.051.155c-.431 1.293-1.637 2.162-3 2.162s-2.569-.869-3-2.163l-.051-.154-1.897.633.051.153c.703 2.113 2.671 3.531 4.897 3.531s4.194-1.418 4.897-3.53z"/><path d="m25.5 6.5h5v2h-5z" transform="matrix(.8 -.6 .6 .8 1.102 18.305)"/><path d="m60.421 47.042c.359-.599.579-1.293.579-2.042 0-1.699-1.069-3.144-2.565-3.723.352-.562.565-1.221.565-1.932 0-1.84-1.376-3.4-3.203-3.628l-.33-.041c-2.935-.367-5.441-2.301-6.539-5.047l-.444-1.11-7.171 4.481c-1.448.905-2.313 2.466-2.313 4.174 0 .611.124 1.197.331 1.744-.464-.147-.934-.275-1.42-.36l-5.256-.928c-1.666-.294-2.973-1.613-3.25-3.281l-.271-1.628c2.316-1.228 4.137-3.26 5.102-5.721h.764c2.206 0 4-1.794 4-4 0-1.249-.588-2.353-1.488-3.087l.43-1.075c.702-1.756 1.058-3.605 1.058-5.494 0-4.324-1.883-8.418-5.166-11.231l-2.688-2.304-.594.297c-1.803.902-6.562 2.241-13.398 3.771-3.623.811-6.154 3.976-6.154 7.695 0 .005.001.009.001.013l-.357.357c-1.06 1.06-1.644 2.47-1.644 3.969 0 .866.205 1.734.592 2.51l.79 1.579c-.84.734-1.382 1.8-1.382 3 0 2.206 1.794 4 4 4h.764c.965 2.461 2.786 4.493 5.102 5.721l-.271 1.628c-.278 1.668-1.584 2.987-3.25 3.281l-5.256.928c-5.267.928-9.089 5.484-9.089 10.832v12.61h58c2.206 0 4-1.794 4-4v-9c0-1.51-1.125-2.751-2.579-2.958zm-3.421-.042h-18c-1.103 0-2-.897-2-2s.897-2 2-2h18c1.103 0 2 .897 2 2s-.897 2-2 2zm-14.627-11.305 5.202-3.25c1.546 2.847 4.383 4.808 7.645 5.215l.33.041c.827.104 1.45.81 1.45 1.644 0 .913-.743 1.655-1.656 1.655h-12.181l-.165-.056c-1.195-.397-1.998-1.51-1.998-2.77 0-1.014.513-1.941 1.373-2.479zm-7.373-9.695h-.191c.12-.65.191-1.316.191-2v-2c1.103 0 2 .897 2 2s-.897 2-2 2zm-17.409-19.171c4.581-1.025 10.426-2.458 13.244-3.653l1.698 1.456c2.839 2.432 4.467 5.972 4.467 9.712 0 1.634-.308 3.233-.915 4.751l-.39.976c-.227-.041-.457-.071-.695-.071v-.395c0-1.945-.749-3.823-2.06-5.244.028-.197.06-.393.06-.597 0-.654-.155-1.309-.447-1.895l-.658-1.317-1.789.895.658 1.317c.155.309.236.655.236 1 0 1.233-1.003 2.236-2.236 2.236h-3.554c.202-.51.537-.963 1.008-1.277l1.336-.891-1.109-1.664-1.336.891c-1.037.691-1.739 1.75-1.996 2.941h-2.113c0-1.565.748-3.061 2-4l1.6-1.2-1.2-1.6-1.6 1.2c-1.74 1.305-2.781 3.377-2.797 5.551-1.14-.226-2.003-1.232-2.003-2.438 0-1.261.602-2.465 1.611-3.221l1.989-1.492-1.2-1.6-1.989 1.492c-1.51 1.132-2.411 2.934-2.411 4.821 0 .282.033.555.083.822-.422.454-.79.95-1.09 1.485-.637-.953-.993-2.081-.993-3.248 0-2.777 1.888-5.138 4.591-5.743zm-6.21 11.698c-.25-.5-.381-1.059-.381-1.616 0-.616.168-1.2.456-1.726.367 1.038.949 1.993 1.718 2.799-.114.53-.174 1.073-.174 1.621v.395c-.287 0-.566.033-.836.091zm1.619 7.473c-1.103 0-2-.897-2-2s.897-2 2-2v2c0 .684.071 1.35.191 2zm2-2v-4.395c0-1.176.367-2.316 1.028-3.269.823 1.007 2.06 1.664 3.459 1.664h9.277c1.322 0 2.49-.621 3.267-1.573.622.935.969 2.041.969 3.178v4.395c0 4.962-4.038 9-9 9s-9-4.038-9-9zm5.567 11.677.194-1.165c1.025.316 2.112.488 3.239.488s2.214-.172 3.238-.488l.194 1.165c.332 1.994 1.651 3.64 3.434 4.456-1.738 1.81-4.15 2.867-6.697 2.867h-.338c-2.548 0-4.959-1.057-6.698-2.867 1.783-.816 3.102-2.462 3.434-4.456zm12.97 25.323h-22.537v-10h-2v10h-6v-10.61c0-4.376 3.127-8.103 7.436-8.863l4.567-.806c2.134 2.681 5.377 4.279 8.828 4.279h.338c3.451 0 6.694-1.598 8.828-4.28l4.183.738c-1.288.666-2.18 1.995-2.18 3.542 0 .749.22 1.443.579 2.042-1.454.207-2.579 1.448-2.579 2.958v9c0 .728.195 1.411.537 2zm27.463-2c0 1.103-.897 2-2 2h-22c-1.103 0-2-.897-2-2v-9c0-.552.449-1 1-1h24c.551 0 1 .448 1 1z"/></g></svg>