<svg id="_x33_0" enable-background="new 0 0 64 64" height="512" viewBox="0 0 64 64" width="512" xmlns="http://www.w3.org/2000/svg"><g><path d="m53 5h-1v-2c0-1.103-.897-2-2-2h-6c-1.103 0-2 .897-2 2v2h-1c-1.654 0-3 1.346-3 3v28c0 1.654 1.346 3 3 3h1.153l.847 5.083v16.917c0 1.103.897 2 2 2h4c1.103 0 2-.897 2-2v-16.917l.847-5.083h1.153c1.654 0 3-1.346 3-3v-28c0-1.654-1.346-3-3-3zm-9-2h6v2h-6zm-3 4h12c.552 0 1 .449 1 1v1h-14v-1c0-.551.448-1 1-1zm2.35 8.898c.491.42.65.587.65.952 0 .366-.159.533-.65.954-.537.46-1.35 1.156-1.35 2.473s.813 2.013 1.35 2.473c.491.421.65.588.65.954 0 .367-.159.534-.65.955-.538.461-1.35 1.156-1.35 2.473 0 1.318.812 2.015 1.349 2.476.492.423.651.59.651.958s-.159.536-.651.958c-.38.326-.893.776-1.163 1.476h-2.186v-22h3.297c-.536.46-1.297 1.151-1.297 2.427 0 1.316.813 2.011 1.35 2.471zm1.301 12.193c-.492-.423-.651-.591-.651-.959 0-.366.159-.533.65-.955.537-.46 1.35-1.156 1.35-2.474 0-1.317-.812-2.012-1.35-2.473-.491-.42-.65-.587-.65-.953s.159-.533.65-.954c.537-.46 1.35-1.156 1.35-2.473 0-1.316-.813-2.011-1.35-2.471-.491-.42-.65-.587-.65-.952 0-.366.159-.533.65-.954.38-.326.893-.774 1.164-1.473h3.483c-.536.46-1.297 1.151-1.297 2.427 0 1.316.813 2.012 1.35 2.472.491.42.65.587.65.952 0 .366-.159.533-.65.954-.537.459-1.35 1.155-1.35 2.472s.813 2.013 1.35 2.473c.491.421.65.588.65.954 0 .367-.159.534-.65.955-.538.461-1.35 1.156-1.35 2.473 0 1.318.812 2.015 1.349 2.476.492.423.651.59.651.958s-.159.536-.651.958c-.38.326-.893.776-1.163 1.476h-3.486c.536-.461 1.3-1.153 1.3-2.434 0-1.317-.812-2.014-1.349-2.475zm6 0c-.492-.423-.651-.591-.651-.959 0-.366.159-.533.65-.955.537-.46 1.35-1.156 1.35-2.474 0-1.317-.812-2.012-1.35-2.473-.491-.42-.65-.587-.65-.953s.159-.533.65-.954c.537-.46 1.35-1.156 1.35-2.473 0-1.316-.813-2.011-1.35-2.471-.491-.42-.65-.587-.65-.952 0-.366.159-.533.65-.954.38-.326.893-.774 1.164-1.473h2.186v22h-3.3c.536-.461 1.3-1.153 1.3-2.434 0-1.317-.812-2.014-1.349-2.475zm-1.638 16.909-.01 12h-4.003v-12zm-4.013 16v-2h4.002l-.002 2zm4.153-18h-4.317l-.658-4h5.642zm3.847-6h-12c-.552 0-1-.448-1-1v-1h14v1c0 .552-.448 1-1 1z"/><path d="m31 1h-20c-1.654 0-3 1.346-3 3v28c0 1.654 1.346 3 3 3h3.22l1.78 7.123v15.635c0 1.053.427 2.084 1.172 2.828l1.414 1.414c.645.645 1.502 1 2.414 1s1.77-.355 2.414-1l1.414-1.414c.745-.744 1.172-1.775 1.172-2.828v-15.635l1.78-7.123h3.22c1.654 0 3-1.346 3-3v-28c0-1.654-1.346-3-3-3zm-13.246 40-.493-2h7.459l-.5 2zm5.66 18.172-1.414 1.414c-.535.533-1.465.533-2 0l-1.414-1.414c-.372-.372-.586-.888-.586-1.414v-14.758h6.028l-.028 14.758c0 .526-.214 1.042-.586 1.414zm1.806-22.172h-8.451l-.493-2h9.444zm6.78-5c0 .551-.448 1-1 1h-20c-.552 0-1-.449-1-1v-28c0-.551.448-1 1-1h20c.552 0 1 .449 1 1z"/><path d="m12 31h18v-26h-18zm2-24h14v22h-14z"/><path d="m20 9h2v2h-2z"/><path d="m24 9h2v2h-2z"/><path d="m16 9h2v2h-2z"/><path d="m20 13h2v2h-2z"/><path d="m24 13h2v2h-2z"/><path d="m16 13h2v2h-2z"/><path d="m20 17h2v2h-2z"/><path d="m24 17h2v2h-2z"/><path d="m16 17h2v2h-2z"/><path d="m20 21h2v2h-2z"/><path d="m24 21h2v2h-2z"/><path d="m16 21h2v2h-2z"/><path d="m20 25h2v2h-2z"/><path d="m24 25h2v2h-2z"/><path d="m16 25h2v2h-2z"/><circle cx="21" cy="58" r="1"/></g></svg>