<svg id="_x33_0" enable-background="new 0 0 64 64" height="512" viewBox="0 0 64 64" width="512" xmlns="http://www.w3.org/2000/svg"><g><path d="m28.031 19c.551 0 1 .449 1 1h2c0-1.654-1.346-3-3-3s-3 1.346-3 3h2c0-.551.448-1 1-1z"/><path d="m36.031 19c.551 0 1 .449 1 1h2c0-1.654-1.346-3-3-3s-3 1.346-3 3h2c0-.551.448-1 1-1z"/><path d="m50.846 38.956c-.635-.793-1.388-1.468-2.22-2.024 1.354-.289 2.374-1.493 2.374-2.932v-10c0-1.654-1.346-3-3-3h-.969c0-.954-.35-1.82-.909-2.508l.647-3.236c.153-.767.231-1.553.231-2.337 0-6.572-5.347-11.919-11.919-11.919h-2.198c-2.011 0-3.843.763-5.237 2.008-5.883.08-10.646 4.885-10.646 10.786 0 .882.108 1.763.322 2.618l.543 2.171c-.516.674-.834 1.505-.834 2.417h-1.031c-1.654 0-3 1.346-3 3v10c0 1.447 1.03 2.658 2.395 2.939-.827.554-1.577 1.228-2.209 2.018-1.39 1.736-2.155 3.917-2.155 6.142v17.901h41.969v-17.902c0-2.224-.765-4.406-2.154-6.142zm-2.846-15.956c.551 0 1 .449 1 1v10c0 .552-.449 1-1 1h-5.413l-4.739-.862-.683-3.416c2.316-1.228 4.137-3.26 5.102-5.721h.765c1.474 0 2.75-.81 3.444-2h1.524zm-20.623-10c.864 0 1.7.253 2.418.732l2.332 1.555.919-.919c.883-.882 2.055-1.368 3.303-1.368 2.567 0 4.662 2.088 4.671 4.655l.011 3.345c0 4.962-4.038 9-9 9s-9-4.038-9-9.003l-.012-3.623c-.004-1.167.447-2.265 1.271-3.092s1.92-1.282 3.087-1.282zm17.431 1.864-.474 2.372c-.411-.142-.845-.236-1.303-.236h-.046c-.083-.824-.322-1.602-.678-2.31.496-1.022 1.53-1.688 2.69-1.689-.006.625-.067 1.251-.189 1.863zm-1.784 4.136h.007c1.103 0 2 .897 2 2s-.897 2-2 2h-.191c.12-.651.191-1.318.191-2.003zm-14.273 12.5c1.036.325 2.138.5 3.28.5 1.131 0 2.223-.172 3.251-.491l.622 3.11c-1.03.88-2.311 1.381-3.68 1.381h-.417c-1.346 0-2.662-.49-3.685-1.354zm16.061-20.485c-1.508.057-2.874.777-3.764 1.929-.507-.504-1.097-.921-1.742-1.242.49-1.016 1.519-1.702 2.694-1.702v-2c-2.055 0-3.852 1.255-4.611 3.09-.34-.054-.686-.09-1.04-.09-.358 0-.711.034-1.058.089.756-2.596 2.989-4.558 5.777-4.868l1.188-.132c1.278 1.342 2.187 3.037 2.556 4.926zm-11.929-8.015h2.198c1.817 0 3.516.499 4.982 1.356-3.691.745-6.499 3.756-6.983 7.504-.426.24-.83.523-1.2.858l-.88-.587v-1.303c0-1.557.606-3.021 1.707-4.122l-1.414-1.414c-1.479 1.479-2.293 3.445-2.293 5.537v.394c-.523-.138-1.063-.221-1.612-.222l-.086-.258c-.2-.6-.302-1.226-.302-1.86 0-3.244 2.639-5.883 5.883-5.883zm-6.968 2.207c-.582 1.099-.915 2.349-.915 3.676 0 .83.134 1.649.391 2.438-.938.308-1.8.83-2.518 1.55-1.111 1.115-1.751 2.571-1.837 4.13h-.005c-.506 0-.985.104-1.431.276l-.337-1.349c-.175-.697-.263-1.415-.263-2.134 0-4.203 2.967-7.723 6.915-8.587zm-4.891 13.794.007 1.999c0 .684.071 1.35.191 2h-.191c-1.103 0-2-.897-2-2 0-1.101.893-1.996 1.993-1.999zm-6.024 14.999v-10c0-.551.449-1 1-1h1.587c.694 1.19 1.97 2 3.444 2h.764c.962 2.452 2.771 4.478 5.075 5.708l-.686 3.43-4.743.862h-5.441c-.551 0-1-.448-1-1zm36 27h-37.969v-15.902c0-1.771.609-3.509 1.716-4.892 1.181-1.477 2.855-2.476 4.714-2.813l7.261-1.32c1.398 1.226 3.218 1.927 5.085 1.927h.417c1.879 0 3.651-.675 5.081-1.928l7.264 1.322c1.859.337 3.534 1.336 4.715 2.813 1.107 1.382 1.716 3.119 1.716 4.891z"/><path d="m29.031 23.837-.051-.154-1.897.633.051.154c.704 2.111 2.672 3.53 4.897 3.53 2.226 0 4.194-1.418 4.897-3.53l.051-.154-1.897-.633-.051.154c-.431 1.294-1.637 2.163-3 2.163s-2.569-.869-3-2.163z"/><path d="m33.789 44h-3.578c-4.18 0-8.06-2.076-10.379-5.555l-1.664 1.109c2.691 4.037 7.193 6.446 12.043 6.446h3.578c4.85 0 9.352-2.409 12.043-6.445l-1.664-1.109c-2.319 3.478-6.199 5.554-10.379 5.554z"/><path d="m29 48h2v11h-2z"/><path d="m14.977 50.5h11.045v2h-11.045z" transform="matrix(.091 -.996 .996 .091 -32.649 67.239)"/><path d="m42.5 45.977h2v11.045h-2z" transform="matrix(.996 -.091 .091 .996 -4.484 4.15)"/></g></svg>