<svg id="_x33_0" enable-background="new 0 0 64 64" height="512" viewBox="0 0 64 64" width="512" xmlns="http://www.w3.org/2000/svg"><g><circle cx="20" cy="16" r="1"/><circle cx="28" cy="16" r="1"/><path d="m26 19.764c-.381.762-1.147 1.236-2 1.236s-1.619-.474-2-1.236l-.105-.211-1.789.895.105.211c.722 1.444 2.174 2.341 3.789 2.341s3.067-.897 3.789-2.342l.105-.211-1.789-.895z"/><path d="m58 12c-1.382 0-2.774.115-4.137.342l-9.52 1.587-1.222-1.222c-.456-.456-1.062-.707-1.707-.707-1.331 0-2.414 1.083-2.414 2.414v9.172c0 1.331 1.083 2.414 2.414 2.414.645 0 1.251-.251 1.707-.707l1.222-1.222 3.434.572c-.324.443-.561.95-.683 1.496-1.213.385-2.094 1.522-2.094 2.861 0 .912.355 1.77 1 2.414l1 1v7.824l-6.399-7.679c-.962-1.155-2.207-1.992-3.601-2.457v-16.102c0-7.168-5.832-13-13-13s-13 5.832-13 13v16.088c-1.347.463-2.538 1.326-3.39 2.497l-5.643 7.759c-.633.87-.967 1.899-.967 2.975 0 1.352.526 2.622 1.481 3.576l10.519 10.519v5.586h22v-20.717l9.876 9.116c1.118 1.033 2.571 1.601 4.092 1.601 3.326 0 6.032-2.706 6.032-6.032v-13.152c1.161-.414 2-1.514 2-2.816v-5.041c.334.013.667.041 1 .041 2.757 0 5-2.243 5-5v-4c0-2.757-2.243-5-5-5zm-17 11.586v-9.172c0-.338.468-.532.707-.293l1.293 1.293v7.172l-1.293 1.293c-.239.238-.707.045-.707-.293zm4-7.739 9.192-1.532c.267-.044.539-.065.808-.1v9.571c-.269-.035-.541-.056-.808-.1l-9.192-1.533zm-20 37.153v8h-2v-8c0-1.103-.897-2-2-2h-2v-10c0-1.103-.897-2-2-2h-2v-7.495l2-.2v2.695c0 1.654 1.346 3 3 3h8c1.654 0 3-1.346 3-3v-2.695l2 .2v19.495h-6c-1.103 0-2 .897-2 2zm-10-8h2v2h-2zm2-2h-2v-2h2zm-4 3.586-1.66-1.66 1.66-2.075zm2 2.414h2v2h-2zm9.02-24.022c-1.851-.029-3.636-.721-4.962-2.043s-2.058-3.084-2.058-4.957v-2.138c0-1.943 1.14-3.726 2.905-4.54l2.749-1.269c.83.875 1.923 1.504 3.169 1.753l2.765.553c1.398.28 2.412 1.517 2.412 2.942v2.698c0 3.85-3.131 6.99-6.98 7.001zm-2.334 1.691c.747.197 1.521.309 2.314.309h.026c.792-.002 1.556-.118 2.288-.313l.271 1.356c.145.724.484 1.362.948 1.881-1.033.711-2.253 1.098-3.533 1.098s-2.5-.387-3.532-1.098c.464-.519.803-1.157.948-1.881zm-2.686 4.632c1.431 1.097 3.168 1.699 5 1.699s3.569-.602 5-1.699v2.699c0 .552-.449 1-1 1h-8c-.551 0-1-.448-1-1zm16-17.301v15.695l-4.693-.47c-.88-.088-1.588-.729-1.762-1.598l-.34-1.701c2.848-1.513 4.795-4.509 4.795-7.948v-2.698c0-2.375-1.69-4.437-4.019-4.903l-2.766-.553c-1.862-.373-3.215-2.023-3.215-3.923v-2.85c.33-.03.662-.051 1-.051 6.065 0 11 4.935 11 11zm-14-10.574v2.474c0 .865.187 1.695.525 2.448l-2.458 1.135c-2.471 1.141-4.067 3.636-4.067 6.356v2.138c0 2.409.939 4.672 2.645 6.373.644.642 1.368 1.173 2.148 1.587l-.338 1.691c-.173.868-.881 1.509-1.762 1.597l-4.693.47v-15.695c0-5.024 3.39-9.263 8-10.574zm-11.772 30.336c.837-1.151 2.13-1.893 3.546-2.034l.226-.023v7.944l-3.083 3.854-4.501-4.501zm-5.332 11.719c-.578-.577-.896-1.344-.896-2.162 0-.651.202-1.272.584-1.799l.641-.881 8.775 8.775v5.172zm11.104 7.519h6v8h-6zm12 8v-8h6v8zm8-29.295.052.005c1.575.157 3 .914 4.013 2.129l4.401 5.281-4.293 4.293-4.173-3.85zm13.968 19.295c-1.017 0-1.988-.38-2.735-1.069l-5.59-5.159 4.108-4.108 2.249 2.698v3.638h2v-15.414l-1.586-1.586c-.263-.263-.414-.628-.414-1 0-.551.449-1 1-1h1v-1c0-.889.598-1.666 1.439-1.913l.561.094v5.819c0 1.302.839 2.402 2 2.816v13.152c0 2.223-1.809 4.032-4.032 4.032zm6.032-20c0 .551-.449 1-1 1s-1-.449-1-1v-5.486l.863.144c.376.063.758.096 1.137.141zm3-7c-.333 0-.666-.027-1-.041v-9.917c.334-.015.667-.042 1-.042 1.302 0 2.402.839 2.816 2h-1.816v2h2v2h-2v2h1.816c-.414 1.161-1.514 2-2.816 2z"/><path d="m47 18h2v2h-2z"/><path d="m51 18h2v2h-2z"/></g></svg>