<svg id="_x33_0" enable-background="new 0 0 64 64" height="512" viewBox="0 0 64 64" width="512" xmlns="http://www.w3.org/2000/svg"><g><path d="m58 1-7.062.002-48.06 2.942c-1.054.065-1.878.941-1.878 1.996v19.137c0 1.034.807 1.909 1.838 1.994l32.32 2.62c1.594.13 2.842 1.484 2.842 3.082 0 .114-.007.229-.02.342l-1.959 17.63c-.014.133-.021.266-.021.4v.248c0 1.989 1.618 3.607 3.607 3.607.358 0 .715-.054 1.062-.159l3.831-1.179 1.323 3.97c.273.818 1.035 1.368 1.898 1.368h.279v4h2v-4h.104c1.021 0 1.877-.766 1.988-1.779l.78-7.023c.708-.869 1.128-1.964 1.128-3.152v-16.639c0-.945.645-1.748 1.566-1.953l3.519-.782c2.306-.512 3.915-2.519 3.915-4.88v-16.792c0-2.757-2.243-5-5-5zm-54.261 5.988c3.245 1.622 5.261 4.884 5.261 8.512s-2.016 6.89-5.261 8.512l-.739.37v-17.764zm7.261 8.512c0-3.997-2.026-7.622-5.352-9.722l11.352-.695v21.13l-11.45-.929c3.384-2.09 5.45-5.747 5.45-9.784zm24.32 12.198-16.32-1.323v-21.415l31.231-1.913.253 1.013c.342 1.37.516 2.779.516 4.19 0 2.352-.47 4.641-1.396 6.804-1.065 2.481-1.604 5.11-1.604 7.811v6.205c-2.872.343-5.229 2.582-5.619 5.508l-.19 1.422h-2.518l.296-2.665c.02-.187.031-.374.031-.562 0-2.632-2.056-4.862-4.68-5.075zm16.68 16.678-13.727 4.224.289-2.6h.811c1.997 0 3.701-1.492 3.965-3.472l1.025-7.687c.292-2.189 2.179-3.841 4.389-3.841 1.183 0 2.295.46 3.131 1.297l.117.117zm-12.55-6.376h2.474l-.267 2h-2.429zm-.444 4h2.385l-.035.265c-.132.989-.985 1.735-1.983 1.735h-.589zm1.076 10.929c-.154.047-.314.071-.475.071-.886 0-1.607-.721-1.607-1.607v-.248c0-.06.003-.118.01-.178l.022-.2 13.968-4.298v.577c0 1.325-.851 2.478-2.117 2.867zm9.918 4.071h-2-.279l-1.309-3.926 4.059-1.249c.076-.023.144-.06.218-.087l-.585 5.262zm8.651-31.28-3.519.782c-1.68.373-2.887 1.742-3.091 3.41-.631-.378-1.318-.649-2.042-.791v-6.256c0-2.429.485-4.792 1.441-7.024 1.036-2.413 1.56-4.967 1.56-7.591 0-1.573-.193-3.146-.576-4.674l-.144-.576h5.72c1.654 0 3 1.346 3 3v1h-4v2h4v2h-4v2h4v2h-4v2h4v2h-4v2h4v1.792c0 1.416-.966 2.621-2.349 2.928z"/><path d="m42.898 23.898c1.775-.409 3.102-2.001 3.102-3.898 0-1.186-.519-2.253-1.342-2.986l.089-.036c1.977-.79 3.253-2.676 3.253-4.804 0-2.853-2.321-5.174-5.174-5.174h-.826v2h.826c1.75 0 3.174 1.424 3.174 3.174 0 1.306-.783 2.462-1.995 2.947l-1.26.504c-.564-1.528-2.024-2.625-3.745-2.625-.809 0-1.555.252-2.186.667-2.02-3.495-5.774-5.667-9.814-5.667-3.309 0-6 2.691-6 6 0 1.654 1.346 3 3 3s3-1.346 3-3v-1h-2v1c0 .551-.448 1-1 1s-1-.449-1-1c0-2.206 1.794-4 4-4 3.343 0 6.449 1.803 8.108 4.706l.31.542c-.133.271-.248.552-.317.853-1.774.41-3.101 2.002-3.101 3.899s1.327 3.489 3.102 3.898c.409 1.775 2.002 3.102 3.898 3.102s3.489-1.327 3.898-3.102zm-.898-1.898h-.78c.48-.532.78-1.229.78-2s-.301-1.468-.78-2h.78c1.103 0 2 .897 2 2s-.897 2-2 2zm-3-7c1.103 0 2 .897 2 2v.78c-.532-.48-1.229-.78-2-.78s-1.468.301-2 .78v-.78c0-1.103.897-2 2-2zm1 5c0 .551-.448 1-1 1s-1-.449-1-1 .448-1 1-1 1 .449 1 1zm-4 2c-1.103 0-2-.897-2-2s.897-2 2-2h.78c-.48.532-.78 1.229-.78 2s.301 1.468.78 2zm1 1v-.78c.532.48 1.229.78 2 .78s1.468-.301 2-.78v.78c0 1.103-.897 2-2 2s-2-.897-2-2z"/></g></svg>