<svg id="_x33_0" enable-background="new 0 0 64 64" height="512" viewBox="0 0 64 64" width="512" xmlns="http://www.w3.org/2000/svg"><g><path d="m27 23c.552 0 1 .449 1 1h2c0-1.654-1.346-3-3-3s-3 1.346-3 3h2c0-.551.448-1 1-1z"/><path d="m37 23c.552 0 1 .449 1 1h2c0-1.654-1.346-3-3-3s-3 1.346-3 3h2c0-.551.448-1 1-1z"/><path d="m35 29.838c-.432 1.293-1.637 2.162-3 2.162s-2.568-.869-3-2.165l-.052-.154-1.896.638.052.151c.703 2.112 2.67 3.53 4.896 3.53s4.193-1.418 4.896-3.527l.052-.154-1.896-.638z"/><path d="m31 26h2v2h-2z"/><path d="m59 54.124c0-5.347-3.208-10.084-8.172-12.07l-.927-.37c-.037-.185-.075-.37-.135-.549l-.398-1.194c1.674-1.823 2.632-4.22 2.632-6.757v-12.184c0-11.028-8.972-20-20-20s-20 8.972-20 20v12.184c0 2.538.958 4.935 2.632 6.757l-.397 1.192c-.06.18-.099.365-.136.55l-.927.37c-4.964 1.987-8.172 6.724-8.172 12.071v2.876h11.113c-.07.326-.113.659-.113 1 0 1.588.788 3.061 2.109 3.941l1.891 1.261 1.891-1.261c1.321-.88 2.109-2.353 2.109-3.941 0-.341-.043-.674-.113-1h16.227c-.071.326-.114.659-.114 1 0 1.588.788 3.061 2.109 3.941l1.891 1.261 1.891-1.261c1.321-.88 2.109-2.353 2.109-3.941 0-.341-.043-.674-.113-1h11.113zm-42.547-12.62 1.992 1.328 1.109-1.664-1.992-1.328c-2.23-1.487-3.562-3.976-3.562-6.656v-12.184c0-9.925 8.075-18 18-18s18 8.075 18 18v12.184c0 2.681-1.332 5.169-3.563 6.656l-1.992 1.328 1.109 1.664 1.992-1.328c.065-.044.122-.097.186-.142l.135.405c.089.262.133.535.133.813 0 1.059-.636 1.997-1.618 2.39l-2.753 1.102.742 1.857 1.075-.43.385 1.156c.112.336.169.687.169 1.043 0 1.106-.55 2.134-1.47 2.747l-.53.353h-.001l-.187.125-1.336-.334c-.869-.218-1.476-.996-1.476-1.893 0-.224.052-.443.127-.654l1.358.815 1.029-1.715-2.579-1.548c-1.194-.715-1.935-2.025-1.935-3.417 0-.501.12-.995.305-1.462.235.146.47.291.72.416l1.528.764.895-1.789-1.528-.764c-1.839-.92-3.174-2.593-3.685-4.56 3.891-1.897 6.605-5.829 6.747-10.407l2.677-3.346c.864-1.083 1.341-2.442 1.341-3.827 0-2.796-1.92-5.219-4.602-5.913-.749-2.494-3.068-4.289-5.735-4.289h-2.702c-1.13-1.257-2.759-2-4.461-2-1.859 0-3.607.719-4.932 2.021-.089-.004-.177-.021-.266-.021-2.592 0-4.746 1.872-5.204 4.333l-.693.346c-2.1 1.05-3.405 3.162-3.405 5.51 0 1.395.479 2.761 1.35 3.849l2.669 3.337c.142 4.579 2.856 8.51 6.747 10.407-.511 1.967-1.846 3.64-3.685 4.56l-1.528.764.895 1.789 1.528-.764c.25-.125.485-.271.72-.416.184.467.304.961.304 1.462 0 1.393-.741 2.702-1.936 3.418l-2.579 1.548 1.029 1.715 1.358-.815c.076.21.128.43.128.653 0 .896-.607 1.675-1.477 1.893l-1.336.334-.187-.125h-.001l-.53-.353c-.919-.613-1.469-1.64-1.469-2.747 0-.356.057-.707.169-1.044l.385-1.156 1.075.43.742-1.857-2.753-1.102c-.982-.392-1.618-1.33-1.618-2.389 0-.278.044-.551.133-.814l.134-.403c.064.044.121.097.186.141zm21.179-.003c-.29.581-.478 1.211-.568 1.854-1.469 1.06-3.249 1.645-5.064 1.645s-3.595-.585-5.064-1.645c-.09-.643-.278-1.273-.568-1.854l-.042-.083c1.081-1.082 1.887-2.42 2.314-3.905 1.068.312 2.193.487 3.36.487s2.292-.175 3.359-.487c.428 1.485 1.233 2.823 2.314 3.905zm-15.974-22.948c-1.022.511-1.658 1.539-1.658 2.683v1.914l-1.089-1.361c-.588-.735-.911-1.658-.911-2.6 0-1.469.762-2.792 2-3.544v1.355h2v-2.698c0-1.821 1.481-3.302 3.302-3.302.355 0 .707.057 1.044.169l2.338.779.633-1.897-1.231-.41c.734-.405 1.552-.641 2.414-.641 1.252 0 2.448.598 3.2 1.6l1.5 2 1.6-1.2-.3-.4h1.163c1.979 0 3.681 1.477 3.96 3.435l.387 2.707 1.98-.283-.184-1.285c1.315.702 2.194 2.079 2.194 3.628 0 .933-.321 1.848-.904 2.577l-1.096 1.37v-1.509c0-1.425-1.014-2.663-2.412-2.942l-.514-.102c-1.406-.281-2.591-1.134-3.313-2.354.574-.304 1.107-.695 1.58-1.168l.366-.366-1.414-1.414-.366.366c-.865.864-2.015 1.34-3.238 1.34-.852 0-1.674-.243-2.396-.688.181-.346.337-.708.435-1.1l.242-.97-1.941-.484-.241.97c-.335 1.337-1.532 2.272-2.911 2.272h-1.877v-2h-2v3.146c0 .762-.424 1.448-1.105 1.789zm.342 2.683c0-.381.212-.724.553-.894l1.236-.618c1.102-.551 1.857-1.555 2.111-2.724h1.977c1.181 0 2.277-.416 3.144-1.118l.019.013c1.084.723 2.346 1.105 3.649 1.105.388 0 .77-.039 1.145-.104.982 1.906 2.741 3.239 4.848 3.661l.514.102c.466.093.804.506.804.981v4.36c0 5.514-4.486 10-10 10s-10-4.486-10-10zm-15 33.764v-.876c0-4.524 2.714-8.533 6.914-10.213l.26-.104c.357 1.291 1.267 2.367 2.526 2.933l-.427 1.281c-.181.541-.273 1.105-.273 1.677 0 1.712.825 3.3 2.207 4.295l-.098.065c-.395.263-.736.585-1.029.941h-10.08zm13.781 5.277-.781.521-.781-.521c-.763-.508-1.219-1.36-1.219-2.277s.456-1.769 1.219-2.277l.781-.521.781.521c.763.508 1.219 1.36 1.219 2.277s-.456 1.769-1.219 2.277zm2.138-5.277c-.172-.21-.357-.41-.566-.59 1.572-.55 2.647-2.021 2.647-3.714 0-.599-.143-1.196-.405-1.734 1.096-.823 1.879-1.998 2.216-3.315 1.579.879 3.371 1.353 5.189 1.353s3.61-.474 5.19-1.353c.337 1.317 1.119 2.492 2.216 3.315-.263.538-.406 1.136-.406 1.734 0 1.693 1.075 3.164 2.646 3.714-.209.179-.393.38-.566.59zm21.862 5.277-.781.521-.781-.521c-.763-.508-1.219-1.36-1.219-2.277s.456-1.769 1.219-2.277l.781-.521.781.521c.763.508 1.219 1.36 1.219 2.277s-.456 1.769-1.219 2.277zm12.219-5.277h-10.081c-.293-.357-.634-.678-1.029-.941l-.098-.065c1.383-.996 2.208-2.584 2.208-4.296 0-.572-.092-1.137-.272-1.677l-.428-1.28c1.259-.567 2.169-1.642 2.526-2.933l.26.104c4.2 1.679 6.914 5.688 6.914 10.212z"/></g></svg>