<svg id="_x33_0" enable-background="new 0 0 64 64" height="512" viewBox="0 0 64 64" width="512" xmlns="http://www.w3.org/2000/svg"><g><path d="m22 45c2.206 0 4-1.794 4-4 0-3.296-3.069-7.426-3.2-7.6l-.8-1.067-.8 1.067c-.131.174-3.2 4.304-3.2 7.6 0 2.206 1.794 4 4 4zm0-9.214c.892 1.434 2 3.594 2 5.214 0 1.103-.897 2-2 2s-2-.897-2-2c0-1.615 1.109-3.778 2-5.214z"/><path d="m14 47h6v2h-6z"/><path d="m22 47h8v2h-8z"/><path d="m16 51h12v2h-12z"/><path d="m58.421 53.043c.359-.6.579-1.294.579-2.043 0-2.206-1.794-4-4-4h-.896c.568-.809.896-1.787.896-2.826 0-1.708-.865-3.269-2.313-4.174l-7.171-4.481-.444 1.11c-.6 1.5-1.629 2.744-2.909 3.636-1.203-4.806-3.657-9.176-7.178-12.695l-3.985-3.984v-4.586c0-1.103-.897-2-2-2h-4v-4c3.309 0 6-2.691 6-6h10v-1.586c0-1.179-.459-2.287-1.292-3.121s-1.942-1.293-3.122-1.293h-17.586c-3.309 0-6 2.691-6 6s2.691 6 6 6v4h-4c-1.103 0-2 .897-2 2v4.586l-3.984 3.984c-5.169 5.168-8.016 12.041-8.016 19.352 0 3.497.659 6.917 1.958 10.164l1.108 2.771c.764 1.91 2.586 3.143 4.642 3.143h49.292c2.757 0 5-2.243 5-5 0-2.613-2.022-4.74-4.579-4.957zm-21.835-50.043c.645 0 1.251.251 1.707.707.356.357.588.806.672 1.293h-8.308c-.264-.745-.671-1.423-1.189-2zm20.414 48c0 1.103-.897 2-2 2h-18c-1.103 0-2-.897-2-2s.897-2 2-2h18c1.103 0 2 .897 2 2zm-26.974 4h-18.61c-.411 0-.776-.247-.927-.626l-.039-.097c-.635-1.589-1.043-3.061-1.247-4.501-.875-6.168 1.119-12.199 5.469-16.549l1.934-1.935c.189-.188.441-.292.708-.292h9.372c.267 0 .519.104.708.293l1.554 1.554c3.721 3.721 5.866 8.47 6.04 13.372.016.449-.002.902-.017 1.354-1.174.697-1.971 1.965-1.971 3.427 0 .749.22 1.443.579 2.043-1.451.123-2.721.857-3.553 1.957zm16.399-16.556 5.202 3.251c.86.538 1.373 1.465 1.373 2.479 0 1.26-.803 2.373-1.999 2.771l-.163.055h-12.182c-.913 0-1.656-.742-1.656-1.655 0-.834.624-1.54 1.45-1.644l.331-.041c3.261-.407 6.097-2.368 7.644-5.216zm-17.425-15.444h-2v-4h2zm-10 0v-4h2v4zm4-4h2v4h-2zm-8-12c0-2.206 1.794-4 4-4h6c2.206 0 4 1.794 4 4s-1.794 4-4 4h-6c-2.206 0-4-1.794-4-4zm6 6h2v4h-2zm-6 6h2v4h-2zm-6.292 42c-1.234 0-2.327-.74-2.786-1.886l-1.108-2.771c-1.204-3.009-1.814-6.179-1.814-9.421 0-6.776 2.639-13.146 7.43-17.938l3.984-3.984h15.172l3.984 3.984c3.377 3.376 5.695 7.597 6.764 12.237-.577.213-1.176.376-1.801.454l-.331.041c-.64.08-1.219.33-1.708.692-.902-4.043-3.003-7.847-6.133-10.976l-1.554-1.554c-.566-.565-1.32-.878-2.121-.878h-9.372c-.801 0-1.555.313-2.122.879l-1.934 1.935c-4.799 4.798-6.999 11.447-6.036 18.243.227 1.602.675 3.225 1.369 4.961l.039.098c.459 1.144 1.553 1.884 2.786 1.884h17.685c-.066.323-.101.658-.101 1 0 1.125.374 2.164 1.002 3zm49.292 0h-24c-1.654 0-3-1.346-3-3s1.346-3 3-3h24c1.654 0 3 1.346 3 3s-1.346 3-3 3z"/></g></svg>