<svg id="_x33_0" enable-background="new 0 0 64 64" height="512" viewBox="0 0 64 64" width="512" xmlns="http://www.w3.org/2000/svg"><g><path d="m46 5h-28v40h28zm-2 38h-24v-36h24z"/><path d="m55.121 52.707-1.121-1.121v-27.586c0-1.654-1.346-3-3-3h-1v-18c0-1.103-.897-2-2-2h-32c-1.103 0-2 .897-2 2v18h-1c-1.654 0-3 1.346-3 3v27.586l-1.121 1.121c-.567.566-.879 1.32-.879 2.121v5.172c0 1.654 1.346 3 3 3h42c1.654 0 3-1.346 3-3v-5.172c0-.801-.312-1.555-.879-2.121zm-7.121.293h-32v-4h32zm-32 2h32v6h-32zm32-52v44h-32v-44zm-38 57v-5.172c0-.263.107-.521.293-.707l1.707-1.707v-28.414c0-.552.449-1 1-1h1v38h-3c-.551 0-1-.448-1-1zm44 0c0 .552-.449 1-1 1h-3v-38h1c.551 0 1 .448 1 1v28.414l1.707 1.707c.186.187.293.444.293.707z"/><path d="m31 16.515h2v16.971h-2z" transform="matrix(.707 -.707 .707 .707 -8.305 29.95)"/><path d="m34 8.515h2v16.971h-2z" transform="matrix(.707 -.707 .707 .707 -1.77 29.728)"/><path d="m28 24.515h2v16.971h-2z" transform="matrix(.707 -.707 .707 .707 -14.841 30.172)"/></g></svg>