<svg id="_x33_0" enable-background="new 0 0 64 64" height="512" viewBox="0 0 64 64" width="512" xmlns="http://www.w3.org/2000/svg"><g><path d="m34 31.764c-.381.762-1.147 1.236-2 1.236s-1.619-.474-2-1.236l-.105-.211-1.789.895.105.211c.722 1.444 2.174 2.341 3.789 2.341s3.067-.897 3.789-2.342l.105-.211-1.789-.895z"/><path d="m53.324 50.406-12.324-2.24v-1.166h1.292c4.542 0 9.091-1.074 13.155-3.105l1.241-.62-.981-.981c-1.746-1.747-2.707-4.067-2.707-6.536v-17.471c0-9.532-7.755-17.287-17.287-17.287-1.243 0-2.476.151-3.681.415-1.228-.272-2.487-.415-3.745-.415-9.532 0-17.287 7.755-17.287 17.287v17.471c0 2.469-.961 4.789-2.707 6.535l-.981.981 1.241.62c4.064 2.032 8.613 3.106 13.155 3.106h1.292v1.166l-12.324 2.24c-5.607 1.02-9.676 5.896-9.676 11.594v1h62v-1c0-5.698-4.069-10.574-9.676-11.594zm-35.445-24.699c-.062.062-.108.133-.164.199-.442-.532-.715-1.195-.715-1.906 0-1.302.839-2.402 2-2.816v3.402zm1.121 2.293c0 2.441.705 4.862 2 6.925v5.193c-1.267-1.814-2-3.988-2-6.286zm6.588-14.676c1.431 2.377 3.599 4.228 6.193 5.266l2.001.8 1.04-6.238 2.58.43c1.385.23 2.643.878 3.636 1.871 1.265 1.264 1.962 2.946 1.962 4.736v7.811c0 1.523-.328 3.035-.938 4.426l-.658-1.481c-1.066-2.396-3.448-3.945-6.071-3.945-1.026 0-2.054.242-2.971.701l-.362.181-.361-.181c-.918-.459-1.945-.701-2.972-.701-2.623 0-5.006 1.549-6.071 3.945l-.658 1.481c-.61-1.391-.938-2.903-.938-4.426v-8.056c0-2.669 1.482-5.068 3.87-6.261zm21.412 10.676c0 .711-.273 1.374-.715 1.906-.056-.066-.102-.138-.164-.199l-1.121-1.121v-3.402c1.161.414 2 1.514 2 2.816zm-2 4v5.832c0 2.298-.733 4.472-2 6.286v-5.193c1.295-2.063 2-4.485 2-6.925zm-13 11c-3.444 0-6.733-1.645-8.8-4.399-.008-.011-.015-.023-.024-.034l1.248-2.809c.744-1.676 2.41-2.758 4.243-2.758.717 0 1.436.17 2.077.49l1.256.628 1.256-.628c.641-.32 1.359-.49 2.077-.49 1.833 0 3.499 1.082 4.243 2.758l1.248 2.809c-.008.011-.015.023-.023.034-2.067 2.754-5.357 4.399-8.801 4.399zm-9-1.652c.618.593 1.282 1.132 2 1.59v4.695l-.215-.116c-.647-.349-1.232-.773-1.785-1.231zm4 2.622c.649.272 1.313.511 2 .675v5.142l-2-1.077zm4 .971c.333.026.664.059 1 .059s.667-.033 1-.059v5.861c-.646.229-1.355.229-2 0zm4-.296c.687-.164 1.351-.403 2-.675v4.74l-2 1.077zm4.215 2.873-.215.115v-4.695c.718-.458 1.382-.997 2-1.59v4.938c-.553.458-1.138.883-1.785 1.232zm-9.569 4.889c.722.388 1.536.593 2.354.593s1.632-.205 2.354-.593l4.646-2.501v2.594l-7 5.25-7-5.25v-2.594zm.767 6.653-5.814 5.087-2.268-9.827 1.418-.258zm1.587 1.269 5.338 4.671h-10.676zm1.587-1.269 6.664-4.998 1.418.258-2.268 9.827zm-11.879-10.06c-3.797 0-7.6-.806-11.076-2.338 1.535-1.965 2.368-4.371 2.368-6.904v-17.471c0-8.199 6.492-14.891 14.603-15.252-.944.501-1.848 1.081-2.689 1.753l-.539.431 1.249 1.563.539-.431c2.701-2.162 6.092-3.351 9.55-3.351 8.43 0 15.287 6.857 15.287 15.287v17.471c0 2.533.833 4.939 2.368 6.904-3.476 1.532-7.279 2.338-11.076 2.338h-1.292v-.215c3.723-2.378 6-6.49 6-10.953v-5.834c1.247-.938 2-2.418 2-3.998 0-2.441-1.76-4.471-4.076-4.907-.239-1.908-1.091-3.675-2.472-5.055-1.29-1.29-2.922-2.13-4.721-2.43l-4.552-.76-.959 5.757c-2.138-.932-3.901-2.534-5.049-4.558l.474-.711c1.81-2.715 4.839-4.336 8.103-4.336 1.929 0 3.797.565 5.403 1.636l.294.196 1.109-1.664-.294-.196c-1.935-1.29-4.187-1.972-6.512-1.972-3.934 0-7.585 1.954-9.769 5.228l-.664.997-1.34.67c-2.812 1.405-4.629 4.117-4.916 7.201-2.308.441-4.059 2.469-4.059 4.904 0 1.581.753 3.061 2 3.998v5.834c0 4.463 2.277 8.575 6 10.953v.215zm-10.674 7.373 9.327-1.696 2.382 10.323h-19.692c.437-4.292 3.659-7.84 7.983-8.627zm30.223 8.627 2.382-10.323 9.327 1.696c4.323.787 7.546 4.335 7.983 8.627z"/><path d="m23 23h2c0-.552.449-1 1-1s1 .448 1 1h2c0-1.654-1.346-3-3-3s-3 1.346-3 3z"/><path d="m38 22c.551 0 1 .448 1 1h2c0-1.654-1.346-3-3-3s-3 1.346-3 3h2c0-.552.449-1 1-1z"/></g></svg>