<svg id="_x33_0" enable-background="new 0 0 64 64" height="512" viewBox="0 0 64 64" width="512" xmlns="http://www.w3.org/2000/svg"><g><path d="m58 53h-3c-.552 0-1-.448-1-1s.448-1 1-1h2c2.206 0 4-1.794 4-4s-1.794-4-4-4h-8.216c-1.248-5.052-3.441-9.841-6.526-14.159l-2.258-3.161v-6.958c2.38-.881 4-3.136 4-5.723 0-6.617-5.383-12-12-12s-12 5.384-12 12.001c0 2.588 1.621 4.844 4 5.722v6.958l-2.258 3.161c-3.085 4.319-5.278 9.107-6.526 14.159h-9.216c-2.757 0-5 2.243-5 5s2.243 5 5 5h3c.552 0 1 .448 1 1s-.448 1-1 1h-2c-2.206 0-4 1.794-4 4s1.794 4 4 4h51c2.757 0 5-2.243 5-5s-2.243-5-5-5zm-36-40c0-5.514 4.486-10 10-10s10 4.486 10 10c0 1.894-1.283 3.539-3.124 4h-13.749l-.004-.001c-1.839-.458-3.123-2.103-3.123-3.999zm4 12v-6h12v6zm-2.631 5.003 2.145-3.003h5.486v12h2v-12h5.486l2.145 3.003c4.725 6.615 7.267 14.384 7.366 22.499-1.429 1.012-7.005 4.498-15.997 4.498-8.995 0-14.571-3.488-15.997-4.498.1-8.115 2.642-15.884 7.366-22.499zm34.631 30.997h-51c-1.103 0-2-.897-2-2s.897-2 2-2h2c1.654 0 3-1.346 3-3s-1.346-3-3-3h-3c-1.654 0-3-1.346-3-3s1.346-3 3-3h8.769c-.509 2.614-.769 5.289-.769 8v.469l.359.3c.257.212 6.409 5.231 17.641 5.231s17.384-5.019 17.641-5.231l.359-.3v-.469c0-2.711-.26-5.386-.769-8h7.769c1.103 0 2 .897 2 2s-.897 2-2 2h-2c-1.654 0-3 1.346-3 3s1.346 3 3 3h3c1.654 0 3 1.346 3 3s-1.346 3-3 3z"/><path d="m31 41h2v14h-2z"/><path d="m37 45h2c0-5.392-.663-10.775-1.97-16.002l-.06-.239-1.941.482.061.24c1.267 5.07 1.91 10.291 1.91 15.519z"/><path d="m37 47h2v6h-2z"/><path d="m43 51h2v-1.384c0-5.19-1.036-10.241-3.081-15.01l-1.838.787c1.937 4.52 2.919 9.305 2.919 14.223z"/><path d="m26.971 28.997c-1.308 5.228-1.971 10.611-1.971 16.003h2c0-5.228.643-10.449 1.911-15.52l.06-.239-1.941-.482z"/><path d="m25 47h2v6h-2z"/><path d="m19 49.616v1.384h2v-1.384c0-4.918.982-9.703 2.919-14.223l-1.838-.787c-2.045 4.769-3.081 9.82-3.081 15.01z"/></g></svg>