<svg id="_x33_0" enable-background="new 0 0 64 64" height="512" viewBox="0 0 64 64" width="512" xmlns="http://www.w3.org/2000/svg"><g><path d="m43 53h10v2h-10z"/><path d="m60.181 49h-1.261c-.441-3.059-2.861-5.479-5.92-5.92v-2.08c0-1.103-.897-2-2-2h-2v-2c1.103 0 2-.897 2-2v-2c0-1.103-.897-2-2-2h-6c-1.103 0-2 .897-2 2v2c0 1.103.897 2 2 2v2h-2c-1.103 0-2 .897-2 2v2.08c-.706.102-1.378.308-2 .605v-26.685c0-3.719-2.555-6.845-6-7.737v-5.263c0-1.654-1.346-3-3-3h-16c-1.654 0-3 1.346-3 3v5.263c-3.445.892-6 4.018-6 7.737v34.184c0 .99-.29 1.949-.84 2.773l-.369.554c-.518.776-.791 1.679-.791 2.613 0 .729.172 1.457.497 2.107l1.056 2.11c.511 1.023 1.54 1.659 2.683 1.659h53.124c1.426 0 2.663-1.015 2.941-2.411l1.644-8.216c.036-.182.055-.368.055-.554 0-1.554-1.265-2.819-2.819-2.819zm-3.282 0h-21.798c.465-2.279 2.484-4 4.899-4h12c2.414 0 4.434 1.721 4.899 4zm-27.899 2.819c0 .186.019.372.055.554l.125.627h-19.18c-.552 0-1-.448-1-1v-34c0-.552.448-1 1-1h20c.552 0 1 .448 1 1v31.136c-1.154.353-2 1.416-2 2.683zm14-18.819h6l.002 2h-6.002zm2 4h2v2h-2zm6 4v2h-10v-2zm-40-37c0-.552.448-1 1-1h16c.552 0 1 .448 1 1v5h-18zm-5.764 57c-.382 0-.725-.212-.895-.553l-1.056-2.11c-.186-.374-.285-.794-.285-1.213 0-.537.157-1.058.455-1.504l.369-.554c.77-1.153 1.176-2.496 1.176-3.882v-34.184c0-3.309 2.691-6 6-6h18c3.309 0 6 2.691 6 6v28.111c-1.014 1.037-1.704 2.387-1.92 3.889h-.08v-31c0-1.654-1.346-3-3-3h-20c-1.654 0-3 1.346-3 3v34c0 1.654 1.346 3 3 3h19.58l1.118 5.588c.028.142.066.279.113.412zm53.124 0h-24.72c-.476 0-.888-.338-.98-.804l-1.644-8.216c-.011-.052-.016-.106-.016-.161 0-.452.367-.819.819-.819h28.361c.453 0 .82.367.82.819 0 .055-.005.108-.016.161l-.204 1.02h-5.78v2h5.38l-1.04 5.197c-.092.465-.504.803-.98.803z"/><path d="m11 25h18v-6h-18zm8-2h-2v-2h2zm2-2h2v2h-2zm6 2h-2v-2h2zm-14-2h2v2h-2z"/><path d="m11 27h6v2h-6z"/><path d="m19 27h10v2h-10z"/><path d="m11 31h18v2h-18z"/><path d="m19 39c0-2.206-1.794-4-4-4s-4 1.794-4 4 1.794 4 4 4 4-1.794 4-4zm-6 0c0-1.103.897-2 2-2s2 .897 2 2-.897 2-2 2-2-.897-2-2z"/><path d="m17 45c-1.654 0-3 1.346-3 3s1.346 3 3 3 3-1.346 3-3-1.346-3-3-3zm0 4c-.552 0-1-.448-1-1s.448-1 1-1 1 .448 1 1-.448 1-1 1z"/><path d="m23 41c0 3.309 2.691 6 6 6v-2c-2.206 0-4-1.794-4-4s1.794-4 4-4v-2c-3.309 0-6 2.691-6 6z"/></g></svg>