<svg id="_x33_0" enable-background="new 0 0 64 64" height="512" viewBox="0 0 64 64" width="512" xmlns="http://www.w3.org/2000/svg"><g><path d="m5 28v6h26v-6zm10 2h2v2h-2zm-2 2h-2v-2h2zm6-2h2v2h-2zm4 0h2v2h-2zm-16 0h2v2h-2zm22 2h-2v-2h2z"/><path d="m7 36h6v2h-6z"/><path d="m15 36h14v2h-14z"/><path d="m22.687 47.522c.197-.384.313-.807.313-1.251 0-1.191-.76-2.245-1.889-2.62-.904-.303-1.638-.938-2.063-1.789l-1.048-2.104-1.048 2.103c-.426.852-1.159 1.487-2.063 1.789-1.13.376-1.89 1.43-1.89 2.621 0 .444.116.867.313 1.252-.791.54-1.312 1.448-1.312 2.477 0 1.654 1.346 3 3 3h6c1.654 0 3-1.346 3-3 0-1.029-.521-1.937-1.313-2.478zm-7.166-1.975c.979-.326 1.829-.902 2.479-1.669.65.766 1.5 1.343 2.479 1.67.312.103.521.393.521.723 0 .203-.079.395-.224.539l-.19.19h-5.172l-.19-.19c-.145-.145-.224-.336-.224-.539 0-.33.209-.62.521-.724zm5.479 5.453h-6c-.552 0-1-.448-1-1s.448-1 1-1h6c.552 0 1 .448 1 1s-.448 1-1 1z"/><path d="m58.421 53.043c.359-.6.579-1.294.579-2.043 0-1.699-1.068-3.144-2.565-3.723.352-.562.565-1.221.565-1.932 0-1.84-1.377-3.4-3.203-3.628l-.329-.041c-2.935-.367-5.44-2.301-6.539-5.047l-.444-1.11-7.172 4.481c-1.449.905-2.313 2.466-2.313 4.174 0 1.039.328 2.018.896 2.826h-.896c-.732 0-1.409.212-2 .556v-22.084c0-.463-.109-.927-.316-1.341l-3.684-7.367v-2.158c0-.594-.174-1.17-.504-1.664l-.628-.942h3.132c1.103 0 2-.897 2-2v-2c0-1.103-.897-2-2-2h-4v-3c0-1.103-.897-2-2-2h-14c-1.103 0-2 .897-2 2 0 .552-.448 1-1 1h-1c-1.103 0-2 .897-2 2v4.697l-1.496 2.244c-.33.495-.504 1.071-.504 1.664v2.158l-3.684 7.367c-.207.415-.316.879-.316 1.342v32.528c0 2.757 2.243 5 5 5h24c.693 0 1.374-.148 2.002-.423.613.269 1.287.423 1.998.423h24c2.757 0 5-2.243 5-5 0-2.613-2.022-4.74-4.579-4.957zm-17.424-6.099c-1.194-.397-1.997-1.51-1.997-2.77 0-1.015.514-1.94 1.373-2.479l5.202-3.251c1.547 2.848 4.383 4.809 7.646 5.216l.329.041c.827.104 1.45.81 1.45 1.644 0 .913-.742 1.655-1.655 1.655h-12.182zm-3.997 2.056h18c1.103 0 2 .897 2 2s-.897 2-2 2h-18c-1.103 0-2-.897-2-2s.897-2 2-2zm-6.974 6h-27.026v-29h30v27.101c-1.213.247-2.253.946-2.974 1.899zm-.644-37 3 6h-28.764l3-6zm-.382-10h4v2h-4zm-20-2h1c1.654 0 3-1.346 3-3h14v7h-18zm-2 8.605c0-.198.058-.39.168-.555l1.367-2.05h18.93l1.367 2.051c.11.165.168.356.168.554v1.395h-22zm-1 46.395c-1.654 0-3-1.346-3-3v-1h26.101c-.066.323-.101.658-.101 1 0 1.129.39 2.159 1.023 2.997-.008 0-.015.003-.023.003zm52 0h-24c-1.654 0-3-1.346-3-3s1.346-3 3-3h24c1.654 0 3 1.346 3 3s-1.346 3-3 3z"/></g></svg>