<svg id="_x33_0" enable-background="new 0 0 64 64" height="512" viewBox="0 0 64 64" width="512" xmlns="http://www.w3.org/2000/svg"><g><path d="m24 28.172h2v5.657h-2z" transform="matrix(.707 -.707 .707 .707 -14.598 26.757)"/><path d="m18 34.172h2v5.657h-2z" transform="matrix(.707 -.707 .707 .707 -20.598 24.272)"/><path d="m21 28.343h2v11.314h-2z" transform="matrix(.707 -.707 .707 .707 -17.598 25.515)"/><path d="m59 29.432v-4.432c0-1.103-.897-2-2-2h-2v-7c0-1.654-1.346-3-3-3h-2c-1.654 0-3 1.346-3 3v7h-2c-1.103 0-2 .897-2 2v4.432c-2.475 1.485-4 4.117-4 7.04v5.016c-.547-.301-1.166-.488-1.834-.488h-2.166v-18.586c0-.526-.213-1.042-.586-1.414l-5.414-5.414v-2.586c0-1.103-.897-2-2-2h-2v-2c0-1.103.897-2 2-2h4c.939 0 1.837.448 2.4 1.199l1.399 1.867c.438.584 1.136.934 1.868.934 1.286 0 2.333-1.047 2.333-2.333v-.667c0-3.859-3.14-7-7-7h-17c-1.103 0-2 .897-2 2v2c0 1.103.897 2 2 2h2c1.103 0 2 .897 2 2v2h-2c-1.103 0-2 .897-2 2v2.586l-5.414 5.414c-.373.372-.586.888-.586 1.414v18.586h-4.166c-2.114 0-3.834 1.72-3.834 3.834 0 .149.009.3.026.448l1.357 11.536c.415 3.525 3.404 6.182 6.952 6.182h23.329c2.956 0 5.518-1.847 6.533-4.5.669 2.583 3.013 4.5 5.803 4.5h12c3.309 0 6-2.691 6-6v-20.528c0-2.923-1.525-5.556-4-7.04zm-10-13.432c0-.552.449-1 1-1h2c.551 0 1 .448 1 1v7h-4zm-4 9h12v4h-12zm-18-12v2h-2v-2zm-6 2v-2h2v2zm-4-10h-2v-2h17c2.757 0 5 2.243 5 5v.667c0 .288-.427.43-.6.2l-1.4-1.868c-.939-1.252-2.435-1.999-4-1.999h-4c-1.474 0-2.75.81-3.444 2h-3.113c-.693-1.19-1.969-2-3.443-2zm4 4h2v2h-2zm-4 4h2v2h-2zm-6 10h8v-2h-6.586l4-4h11.172l4 4h-8.586v2h10v18h-2v-13c0-1.654-1.346-3-3-3h-12c-1.654 0-3 1.346-3 3v13h-2zm18 18h-14v-13c0-.552.449-1 1-1h12c.551 0 1 .448 1 1zm-24.166 2h32.332c1.011 0 1.834.822 1.834 1.834 0 .071-.004.142-.013.214l-.229 1.952h-35.516l-.23-1.953c-.008-.071-.012-.142-.012-.213 0-1.012.823-1.834 1.834-1.834zm29.873 6-1.011 7.14c-.069.49-.495.86-.99.86h-23.412c-.495 0-.921-.37-.99-.859l-1.011-7.141zm2.923 7.584c-.296 2.518-2.431 4.416-4.965 4.416h-23.33c-2.535 0-4.67-1.898-4.966-4.416l-.891-7.584h1.795l1.05 7.421c.209 1.47 1.486 2.579 2.971 2.579h23.412c1.485 0 2.762-1.109 2.971-2.58l1.05-7.42h1.796zm19.37 4.416h-12c-2.206 0-4-1.794-4-4v-20h6v-2h-5.814c.408-1.696 1.507-3.147 3.082-4h13.463c1.575.853 2.674 2.304 3.082 4h-11.813v2h12v20c0 2.206-1.794 4-4 4z"/><path d="m51 39c-4.411 0-8 3.589-8 8v10c0 1.103.897 2 2 2h12c1.103 0 2-.897 2-2v-10c0-4.411-3.589-8-8-8zm6.001 18h-12.001v-10c0-3.309 2.691-6 6-6s6 2.691 6 6z"/><path d="m51 43c-2.191 0-4 6.798-4 8 0 2.206 1.794 4 4 4s4-1.794 4-4c0-1.202-1.809-8-4-8zm0 10c-1.103 0-2-.897-2-2 0-1.158 1.214-4.496 2-5.701.786 1.205 2 4.543 2 5.701 0 1.103-.897 2-2 2z"/></g></svg>