<svg id="_x33_0" enable-background="new 0 0 64 64" height="512" viewBox="0 0 64 64" width="512" xmlns="http://www.w3.org/2000/svg"><path d="m51.975 18.781-3.898-2.599c-.171-.114-.211-.278-.22-.366s-.003-.256.143-.402c.645-.645 1-1.502 1-2.414s-.355-1.77-1-2.414l-.387-.387 2.53-1.518c1.145-.688 1.857-1.945 1.857-3.281 0-.373-.06-.741-.178-1.096l-.311-.934c-.539-1.615-2.228-2.615-3.908-2.313l-31.961 5.81c-.952.174-1.642 1.001-1.642 1.968v2.165c0 1.103.897 2 2 2h2.955c2.586 0 4.874 1.648 5.692 4.103l.176.529c.273.818 1.035 1.368 1.898 1.368h.279v.172c0 .263-.106.521-.293.707l-.828.828c-.566.566-.879 1.32-.879 2.121v4.945l-9.498 19.947c-.328.688-.502 1.456-.502 2.219 0 .86.218 1.715.63 2.47l4.924 9.027c.526.965 1.535 1.564 2.634 1.564h17.625c1.099 0 2.107-.599 2.634-1.563l4.924-9.027c.411-.756.629-1.61.629-2.471 0-.764-.174-1.531-.501-2.218l-9.499-19.948v-4.945c0-.801-.313-1.555-.879-2.121l-.828-.828c-.187-.187-.293-.444-.293-.707v-.325l4.712-.785 5.091 4.242c.538.449 1.219.696 1.921.696h1.974c1.269 0 2.302-1.033 2.302-2.303 0-.772-.384-1.488-1.025-1.916zm-4.015-15.757c.086-.016.174-.024.263-.024.632 0 1.191.403 1.391 1.002l.312.935c.049.15.074.306.074.463 0 .638-.34 1.237-.887 1.565l-.965.579-1.599-4.264zm-20.667 19.097.828-.828c.567-.566.879-1.32.879-2.121v-.172h6v.172c0 .801.313 1.555.879 2.121l.828.828c.187.187.293.444.293.707v.172h-10v-.172c0-.263.106-.52.293-.707zm-.293 4.879v-2h10v2zm2 2v8.303c-1.691.322-3.305.904-4.812 1.748-.405-.031-.811-.051-1.219-.051h-1.099l4.762-10zm0 10.334v.836c-.443-.178-.895-.331-1.351-.469.443-.144.893-.267 1.351-.367zm2 4.056c.649.313 1.317.58 2 .803v7.221l3.672 3.672c.209.209.328.498.328.793 0 .618-.503 1.121-1.121 1.121-.295 0-.584-.119-.793-.328l-4.086-4.086zm0-2.256v-12.134h2v13.069c-.688-.261-1.358-.569-2-.935zm4-1.927c2.615.314 5.145 1.021 7.541 2.128-1.153 1.054-2.67 1.665-4.256 1.665h-.254c-1.022 0-2.038-.118-3.031-.335zm0-2.035v-8.172h2.368l4.744 9.961c-2.28-.917-4.662-1.517-7.112-1.789zm12 12.767c0 .527-.134 1.05-.386 1.513l-4.924 9.027c-.174.322-.511.521-.877.521h-17.625c-.366 0-.703-.199-.878-.521l-4.924-9.027c-.252-.463-.386-.985-.386-1.513 0-.468.106-.937.308-1.358l3.61-7.581h2.051c2.086 0 4.148.469 6.031 1.353v10.233c0 .526.214 1.042.586 1.414l4.086 4.086c.581.581 1.385.914 2.207.914 1.721 0 3.121-1.4 3.121-3.121 0-.822-.333-1.626-.914-2.207l-3.086-3.086v-5.876c.996.19 2.011.29 3.031.29h.254c2.107 0 4.118-.819 5.642-2.228l2.767 5.81c.2.421.306.89.306 1.357zm-10.059-35.67c-.995.597-1.677 1.605-1.879 2.731h-8.342l-.177-.53c-1.09-3.272-4.14-5.47-7.588-5.47h-2.955v-2.166l28.548-5.189 1.855 4.947zm1.03 1.714 3.029-1.817v1.987l-3.776.629c.168-.326.424-.605.747-.799zm12.726 5.017h-1.974c-.233 0-.461-.082-.64-.232l-5.083-4.237v-3.565l2.845-1.707.741.741c.267.268.414.622.414 1s-.147.732-.414 1c-.531.531-.794 1.265-.72 2.013.073.748.475 1.416 1.101 1.834l3.899 2.599c.084.056.134.15.134.251 0 .167-.136.303-.303.303z"/></svg>