<svg id="_x33_0" enable-background="new 0 0 64 64" height="512" viewBox="0 0 64 64" width="512" xmlns="http://www.w3.org/2000/svg"><g><path d="m54.707 53.707c.834-.834 1.293-1.942 1.293-3.121v-1.3l-.675-.231c-.446-.153-.886-.319-1.325-.485v-44.57c0-1.654-1.346-3-3-3h-8c-2.757 0-5 2.243-5 5v25c0 1.103.897 2 2 2h6v11.629c-13.466-8.33-22-23.159-22-39.467v-1.162c0-1.654-1.346-3-3-3h-10c-1.654 0-3 1.346-3 3v7.414c0 22.14 16.597 40.464 38 43.216v.784c0 4.183 3.403 7.586 7.586 7.586 1.331 0 2.414-1.083 2.414-2.414 0-.636-.258-1.258-.707-1.707-.834-.834-1.293-1.942-1.293-3.121v-1.479c.251-.165.489-.354.707-.572zm-22.707-15.707c2.206 0 4 1.794 4 4s-1.794 4-4 4c-3.309 0-6-2.691-6-6 0-.625.039-1.253.116-1.868l.6-4.801c.809-1.25 1.284-2.735 1.284-4.331 0-.185-.015-.367-.027-.549 1.493 2.719 3.246 5.287 5.227 7.67-.387-.079-.789-.121-1.2-.121h-2v2zm0 10c3.309 0 6-2.691 6-6 0-.326-.033-.644-.084-.957 4.59 4.16 10.017 7.479 16.081 9.664-.029.6-.277 1.158-.704 1.586-.456.456-1.063.707-1.707.707-7.153 0-13.889-1.816-19.773-5.009.063.001.124.009.187.009zm8-42c0-1.654 1.346-3 3-3h5.572c-.369.67-.572 1.435-.572 2.236v24.764c0 .552-.448 1-1 1h-7zm8 26.816c1.161-.414 2-1.514 2-2.816v-24.764c0-.909.46-1.735 1.218-2.213.447.1.782.5.782.977v43.765c-1.374-.593-2.706-1.254-4-1.967zm-22.59-9.82-4.895-4.895c1.032-.506 1.96-1.208 2.722-2.078.55 2.389 1.279 4.719 2.173 6.973zm-15.41-18.996c0-.552.448-1 1-1h10c.552 0 1 .448 1 1v1.162c0 2.746.239 5.45.687 8.094-1.121 2.279-3.438 3.744-5.994 3.744-3.69 0-6.693-3.003-6.693-6.693zm6.693 15c.581 0 1.147-.078 1.703-.19l5.776 5.776c1.179 1.179 1.828 2.747 1.828 4.414 0 3.309-2.691 6-6 6-2.206 0-4-1.794-4-4s1.794-4 4-4h2v-2h-2c-2.815 0-5.176 1.95-5.82 4.569-2.016-4.137-3.359-8.656-3.902-13.416 1.591 1.744 3.874 2.847 6.415 2.847zm2.037 17.862c.41.089.834.138 1.27.138 1.629 0 3.143-.492 4.409-1.331l-.277 2.214c-.088.697-.132 1.409-.132 2.117 0 1.065.213 2.08.593 3.01-2.157-1.845-4.121-3.905-5.863-6.148zm35.149 23.431c.077.077.121.184.121.293 0 .228-.186.414-.414.414-3.08 0-5.586-2.506-5.586-5.586v-.574c1.184.097 2.377.16 3.586.16.141 0 .276-.028.414-.04v.798c0 1.713.667 3.323 1.879 4.535z"/><path d="m15 11c1.654 0 3-1.346 3-3s-1.346-3-3-3-3 1.346-3 3 1.346 3 3 3zm0-4c.552 0 1 .448 1 1s-.448 1-1 1-1-.448-1-1 .448-1 1-1z"/><circle cx="45" cy="50" r="1"/></g></svg>