<svg id="_x33_0" enable-background="new 0 0 64 64" height="512" viewBox="0 0 64 64" width="512" xmlns="http://www.w3.org/2000/svg"><path d="m50 39c-2.757 0-5 2.243-5 5v13c0 2.206-1.794 4-4 4s-4-1.794-4-4v-.022c1.084-.109 2.004-.84 2.336-1.9l14.382-46.022c.187-.6.282-1.222.282-1.85 0-3.422-2.784-6.206-6.206-6.206h-.317c-1.283 0-2.396.801-2.82 2h-1.191c-1.315 0-2.465.843-2.861 2.097l-5.453 17.267c-.101.32-.152.652-.152.989 0 1.416.903 2.669 2.247 3.118l.161.054-4.483 14.569c-.3-.057-.608-.094-.925-.094-.293 0-.576.038-.855.086l-4.512-14.576.12-.04c1.344-.449 2.247-1.701 2.247-3.117 0-.337-.051-.669-.152-.989l-5.453-17.267c-.396-1.254-1.545-2.097-2.861-2.097h-1.188c-.424-1.199-1.539-2-2.821-2h-.313c-3.425 0-6.212 2.787-6.212 6.212 0 .623.093 1.241.278 1.837l11.459 37.021c.913 2.948 3.6 4.93 6.687 4.93h1.453l-.756 2.457c-.08.262-.121.532-.121.805 0 1.509 1.229 2.738 2.739 2.738h3.261c0 3.309 2.691 6 6 6s6-2.691 6-6v-13c0-1.654 1.346-3 3-3s3 1.346 3 3v17h2v-17c0-2.757-2.243-5-5-5zm-5.307-7.771-.815-.407c-.541-.271-.878-.816-.878-1.423 0-.162.025-.324.074-.479l5.438-17.222c.132-.418.515-.698.954-.698h1.549zm-6.814-6.656c-.525-.176-.879-.666-.879-1.22 0-.132.02-.263.06-.388l5.453-17.267c.131-.418.514-.698.953-.698h.565l-6.034 19.612zm-2.879 21.427c0 1.654-1.346 3-3 3s-3-1.346-3-3 1.346-3 3-3 3 1.346 3 3zm-13.512-40.302 5.453 17.267c.039.125.059.256.059.388 0 .555-.354 1.045-.878 1.22l-.08.027-6.067-19.6h.559c.439 0 .822.28.954.698zm-8.513 5.302h1.559c.438 0 .822.28.954.698l5.438 17.221c.049.156.074.318.074.48 0 .606-.337 1.151-.879 1.422l-.875.438zm10.672 34.479-3.802-12.283 1.17-.585c1.225-.612 1.985-1.842 1.985-3.212 0-.366-.056-.729-.167-1.081l-5.438-17.222c-.396-1.253-1.545-2.096-2.861-2.096h-2.178l-.168-.542c-.125-.404-.188-.823-.188-1.246 0-2.322 1.89-4.212 4.212-4.212h.313c.441 0 .825.283.956.704l11.796 38.112c-1.367.894-2.277 2.432-2.277 4.184 0 1.114.379 2.134.997 2.966-2.021-.171-3.741-1.519-4.35-3.487zm8.092 9.521c-.407 0-.739-.331-.739-.738 0-.074.011-.147.032-.218l.937-3.044h.031c2.757 0 5-2.243 5-5 0-1.727-.88-3.251-2.215-4.15l11.736-38.144c.13-.422.514-.706.956-.706h.317c2.319 0 4.206 1.887 4.206 4.206 0 .425-.064.847-.191 1.254l-.169.54h-2.174c-1.315 0-2.465.843-2.861 2.097l-5.439 17.223c-.11.35-.166.713-.166 1.079 0 1.369.76 2.6 1.984 3.211l1.105.552-6.662 21.319c-.097.311-.381.519-.705.519z"/></svg>