<svg id="_x33_0" enable-background="new 0 0 64 64" height="512" viewBox="0 0 64 64" width="512" xmlns="http://www.w3.org/2000/svg"><g><path d="m16 35c6.065 0 11-4.935 11-11s-4.935-11-11-11-11 4.935-11 11 4.935 11 11 11zm0-20c4.962 0 9 4.037 9 9s-4.038 9-9 9-9-4.037-9-9 4.038-9 9-9z"/><path d="m23 23h-6v-6h-2v8h8z"/><path d="m61 41c1.103 0 2-.897 2-2v-4c0-1.103-.897-2-2-2v-10.852c0-1.063-.57-2.056-1.488-2.592l-10.541-6.147c-.458-.267-.981-.409-1.512-.409h-19.045c.373-.372.586-.888.586-1.414 0-1.978-1.609-3.586-3.586-3.586-.534 0-1.036.208-1.414.586l-1.781 1.781c-1.02-.467-2.093-.835-3.219-1.065v-2.302c1.103 0 2-.897 2-2v-2c0-1.103-.897-2-2-2h-6c-1.103 0-2 .897-2 2v2c0 1.103.897 2 2 2v2.302c-1.126.229-2.199.597-3.219 1.064l-1.781-1.78c-.378-.378-.88-.586-1.414-.586-1.977 0-3.586 1.608-3.586 3.586 0 .526.213 1.042.586 1.414l1.139 1.139c-2.312 2.64-3.725 6.085-3.725 9.861 0 2.713.735 5.253 2 7.452v29.548c0 1.103.897 2 2 2h36c1.103 0 2-.897 2-2v-2h4v2c0 1.103.897 2 2 2h12c1.103 0 2-.897 2-2v-4c0-1.103-.897-2-2-2h-2v-14zm0-2h-12v-4h12zm-10 12h-2v-10h2zm-16-2h-6v-6h8v4c-1.103 0-2 .897-2 2zm-19-10c.338 0 .668-.029 1-.051v2.051h-8v-3.744c2.092 1.109 4.472 1.744 7 1.744zm33-6v-6h6v6zm-2 0h-8v-6h8zm2.375-14 2.179 4.341.893-.446c.801-.4 1.668-.66 2.553-.792v2.897h-6v-6zm6.861 1c-1.283 0-2.569.241-3.769.702l-2.086-4.155 5.921 3.453zm-9.236 5h-8v-6h8zm-10 0h-6.051c.022-.332.051-.662.051-1s-.029-.668-.051-1h4.051v-2h-4.302c-.14-.687-.342-1.35-.573-2h6.875zm-6.302 2h6.302v6h-8v-1.548c.786-1.366 1.373-2.86 1.698-4.452zm-4.534 8h.836v6h-8v-2.302c2.734-.557 5.188-1.872 7.164-3.698zm-17.164 8h8v6h-8zm10 0h8v6h-8zm-10 8h8v6h-8zm10 0h8v6h-8zm10 0h6v6h-6zm0-10v-6h8v6zm10-6h8v6h-8zm18-2v-11h1.98c.008.049.02.098.02.148v10.852zm-9.633-18 1.004 2h-19.115c-.373-.704-.808-1.368-1.285-2zm-21.953-5c.875 0 1.586.712 1.586 1.586l-1.139 1.139c-.568-.498-1.172-.953-1.811-1.361zm-12.414-7h6l.001 2h-6.001zm2 4h2v2.051c-.332-.022-.662-.051-1-.051s-.668.029-1 .051zm-8.415 3c.001 0 .001 0 0 0l1.365 1.364c-.639.408-1.243.863-1.811 1.361l-1.139-1.139c0-.874.711-1.586 1.585-1.586zm9.415 1c7.168 0 13 5.832 13 13s-5.832 13-13 13-13-5.832-13-13 5.832-13 13-13zm-11 50v-26.836c.611.661 1.28 1.265 2 1.808v23.028h28v2zm36 0h-4v-12h4zm-2-14v-4h8v8h-4v-2c0-1.103-.897-2-2-2zm8 10h-4v-4h8v2h-2c-1.103 0-2 .897-2 2zm14 4h-12v-4h12zm-4-6h-4v-14h4z"/><path d="m41 21h4v2h-4z"/></g></svg>