<svg id="Layer_1" enable-background="new 0 0 512 512" height="512" viewBox="0 0 512 512" width="512" xmlns="http://www.w3.org/2000/svg"><g><path d="m388.552 287.364c28.18-28.176 57.569-57.56 83.793-83.777 25.572-25.599 39.655-59.622 39.655-95.803 0-36.186-14.083-70.212-39.718-95.874-3.529-3.491-5.579-5.556-5.606-5.583-7.437-7.492-17.157-4.134-21.253-.039l-189.415 189.432-189.432-189.431c-5.884-5.885-15.417-5.84-21.252.04 0 0-2.084 2.1-5.613 5.669-25.608 25.567-39.711 59.582-39.711 95.786 0 36.219 14.118 70.249 39.736 95.804 29.734 29.756 61.269 61.296 83.749 83.776-1.3-.043-46.066-3.968-82.535 32.557-43.533 43.496-43.618 113.969-.007 157.541 44.222 44.242 114.8 42.763 157.543 0 22.404-22.414 44.804-44.828 57.515-57.548 12.719 12.721 35.139 35.138 57.592 57.548 43.582 43.599 114.066 43.496 157.548-.004 43.375-43.43 43.375-114.095-.01-157.535-36.473-36.451-81.006-32.611-82.579-32.559zm-327.612-104.998c-19.952-19.903-30.94-46.39-30.94-74.582 0-25.853 9.238-50.272 26.152-69.494l178.636 178.636-69.647 69.666c-19.697-19.694-63.62-63.615-104.201-104.226zm116.329 273.888c-31.193 31.206-82.76 32.361-115.114-.007-31.818-31.79-31.863-83.268.013-115.115 31.478-31.526 82.999-32.077 115.102.005 22.408 22.419 44.816 44.841 57.525 57.559-12.711 12.717-35.118 35.139-57.526 57.558zm78.733-78.773-69.647-69.673 269.526-269.55c16.893 19.249 26.119 43.68 26.119 69.526 0 28.173-10.967 54.667-30.872 74.594-70.529 70.51-163.978 163.954-195.126 195.103zm193.917 78.773c-31.37 31.385-82.895 32.226-115.119-.012-22.456-22.414-44.877-44.83-57.591-57.546 12.716-12.717 35.142-35.14 57.608-57.564 31.474-31.521 82.996-32.081 115.098.001 31.7 31.74 31.7 83.385.004 115.121z"/><path d="m245.427 297.199c-5.849 5.859-5.849 15.364 0 21.223 5.85 5.851 15.375 5.851 21.225 0 5.85-5.859 5.85-15.364 0-21.223-5.849-5.851-15.374-5.851-21.225 0z"/><path d="m359.016 365.34c-.012.011-.022.022-.034.033-18.361 18.374-18.361 48.27.034 66.677 18.434 18.329 48.335 18.298 66.655-.034 18.36-18.374 18.36-48.269 0-66.643-18.329-18.339-48.231-18.354-66.655-.033zm45.434 45.47c-6.663 6.669-17.558 6.654-24.248 0-6.671-6.675-6.677-17.532-.017-24.214 6.727-6.668 17.606-6.679 24.265-.016 6.676 6.68 6.676 17.551 0 24.23z"/><path d="m86.331 365.374c-.012.011-.022.022-.034.033-18.361 18.374-18.361 48.27.034 66.677 18.434 18.329 48.335 18.298 66.655-.034 18.36-18.374 18.36-48.269 0-66.643-18.329-18.34-48.231-18.355-66.655-.033zm45.434 45.469c-6.663 6.669-17.558 6.654-24.248 0-6.671-6.675-6.677-17.532-.017-24.214 6.727-6.668 17.606-6.679 24.265-.016 6.676 6.681 6.676 17.551 0 24.23z"/></g></svg>